<?xml version="1.0" standalone="no"?>
<!DOCTYPE svg PUBLIC "-//W3C//DTD SVG 20010904//EN"
 "http://www.w3.org/TR/2001/REC-SVG-20010904/DTD/svg10.dtd">
<svg version="1.0" xmlns="http://www.w3.org/2000/svg"
 width="320.000000pt" height="320.000000pt" viewBox="0 0 320.000000 320.000000"
 preserveAspectRatio="xMidYMid meet">
<metadata>
Created by potrace 1.14, written by Peter Selinger 2001-2017
</metadata>
<g transform="translate(0.000000,320.000000) scale(0.100000,-0.100000)"
fill="#000000" stroke="none">
<path d="M628 3180 c-143 -31 -287 -109 -390 -213 -114 -113 -181 -236 -225
-412 -4 -16 -9 -435 -10 -930 -3 -959 -3 -959 46 -1098 25 -71 54 -125 104
-195 46 -63 152 -169 178 -177 10 -4 19 -10 19 -14 0 -5 42 -29 94 -55 175
-88 139 -85 1176 -82 498 1 921 6 940 10 258 59 495 256 580 484 58 153 54 91
57 1072 2 747 0 917 -12 975 -53 265 -207 463 -449 579 -157 76 -141 74 -1136
74 -827 0 -891 -1 -972 -18z m720 -818 c12 -48 24 -96 27 -107 2 -11 27 -112
55 -225 28 -113 67 -274 87 -357 20 -84 42 -153 48 -153 6 0 28 30 48 68 21
37 47 83 59 102 11 19 92 161 181 315 88 154 182 317 209 361 l48 82 275 0
c151 0 275 -1 275 -2 0 -3 -88 -534 -96 -581 -3 -16 -16 -97 -30 -180 -33
-201 -33 -202 -44 -265 -11 -65 -15 -86 -35 -210 -8 -52 -17 -106 -20 -120 -2
-14 -11 -68 -20 -120 -8 -52 -18 -110 -21 -127 l-5 -33 -220 0 c-121 0 -218 3
-215 8 2 4 7 28 11 52 3 25 10 68 15 95 5 28 12 68 15 89 3 21 7 48 10 60 2
12 7 37 10 56 2 19 7 46 10 60 3 14 7 45 10 70 3 25 10 65 15 90 9 46 18 96
25 160 3 19 9 55 14 80 17 81 23 136 13 125 -6 -5 -112 -194 -238 -420 -268
-484 -259 -467 -275 -493 -11 -18 -23 -20 -134 -20 -67 0 -126 3 -132 6 -5 4
-15 34 -22 67 -7 33 -14 69 -17 80 -3 11 -9 40 -14 65 -5 25 -16 74 -24 110
-9 36 -41 180 -71 320 -31 140 -59 263 -62 273 -5 19 -15 16 -19 -6 -1 -7 -14
-82 -28 -167 -15 -85 -29 -168 -32 -185 -2 -16 -6 -41 -9 -55 -3 -14 -7 -40
-10 -57 -9 -56 -13 -85 -30 -183 -9 -52 -18 -106 -20 -120 -2 -14 -9 -55 -16
-92 l-11 -68 -219 0 c-170 0 -217 3 -214 13 2 6 6 30 9 52 3 22 12 78 20 125
14 81 22 129 32 195 5 27 27 157 38 225 3 14 7 39 9 55 4 27 133 801 141 850
2 11 7 40 11 65 4 25 9 48 11 51 2 4 127 7 277 7 l274 0 21 -86z"/>
</g>
</svg>
