<?xml version="1.0" standalone="no"?>
<!DOCTYPE svg PUBLIC "-//W3C//DTD SVG 20010904//EN"
 "http://www.w3.org/TR/2001/REC-SVG-20010904/DTD/svg10.dtd">
<svg version="1.0" xmlns="http://www.w3.org/2000/svg"
 width="560.000000pt" height="560.000000pt" viewBox="0 0 560.000000 560.000000"
 preserveAspectRatio="xMidYMid meet">
<metadata>
Created by potrace 1.14, written by Peter Selinger 2001-2017
</metadata>
<g transform="translate(0.000000,560.000000) scale(0.100000,-0.100000)"
fill="#000000" stroke="none">
<path d="M2648 5595 c-2 -1 -41 -5 -88 -8 -47 -4 -128 -13 -180 -21 -583 -91
-1106 -351 -1529 -760 -338 -329 -584 -731 -725 -1186 -128 -412 -155 -846
-81 -1310 13 -82 55 -250 91 -363 308 -958 1117 -1687 2094 -1886 98 -20 111
-22 265 -42 104 -14 421 -17 545 -7 546 48 1068 256 1503 600 204 162 441 420
582 633 325 494 478 1014 470 1600 -7 501 -139 963 -397 1394 -411 684 -1093
1160 -1879 1311 -132 25 -314 42 -481 45 -103 2 -188 2 -190 0z m277 -549
c119 -6 206 -14 213 -21 2 -1 -129 -135 -291 -297 -162 -163 -314 -322 -338
-354 -24 -33 -46 -61 -50 -64 -9 -8 -75 -122 -102 -175 -37 -76 -83 -210 -104
-303 -10 -45 -21 -81 -24 -80 -22 9 -102 120 -137 190 -56 112 -82 219 -85
343 -2 140 7 193 55 314 43 109 103 194 219 313 l104 105 60 8 c33 4 71 9 85
11 14 3 72 7 130 10 58 4 107 8 108 10 2 1 9 1 15 -1 7 -2 71 -6 142 -9z m950
-268 c117 -64 316 -198 312 -210 -1 -4 -209 -216 -462 -470 -366 -367 -473
-481 -517 -548 -102 -154 -168 -308 -204 -478 l-18 -83 -28 33 c-250 285 -269
703 -45 1003 24 33 217 232 427 443 318 317 387 381 404 376 12 -3 71 -33 131
-66z m-2381 -224 c-18 -86 -27 -332 -15 -400 l8 -41 -41 8 c-67 12 -304 3
-395 -15 -46 -10 -85 -15 -88 -13 -10 11 133 183 247 297 113 114 286 257 297
246 2 -2 -3 -39 -13 -82z m3093 -381 c75 -96 263 -412 263 -444 0 -3 -172
-178 -383 -390 -244 -245 -390 -399 -402 -424 -26 -55 -27 -175 -2 -227 46
-93 137 -149 241 -151 106 -2 127 14 439 325 153 154 280 278 282 276 23 -29
31 -498 10 -620 -7 -40 -13 -74 -14 -75 -1 -2 -1 -15 -1 -30 0 -20 -24 -50
-107 -131 -205 -201 -372 -276 -613 -275 -219 1 -405 78 -560 234 -99 99 -170
222 -207 359 -28 102 -25 321 6 420 28 91 69 175 118 244 31 44 900 926 912
926 2 0 10 -8 18 -17z m-3113 -597 c146 -34 276 -107 385 -215 70 -70 112
-129 156 -224 58 -122 70 -183 69 -347 -1 -128 -4 -154 -27 -225 -15 -44 -48
-118 -74 -165 -44 -78 -83 -120 -500 -540 -435 -438 -453 -454 -468 -435 -76
97 -265 413 -265 444 0 4 170 178 379 387 253 253 386 394 401 423 90 178 -37
385 -236 384 -105 0 -127 -16 -437 -325 -154 -153 -281 -277 -283 -275 -18 18
-27 465 -12 597 18 154 18 154 114 249 142 139 195 175 339 236 117 49 321 63
459 31z m1241 -1096 c146 -221 169 -517 59 -758 -56 -122 -111 -186 -505 -580
-327 -327 -396 -391 -413 -386 -77 23 -460 263 -445 278 2 3 211 213 464 468
367 369 472 480 517 548 103 156 160 287 199 458 l23 102 29 -32 c16 -18 48
-62 72 -98z m727 -714 c175 -233 201 -559 66 -831 -47 -94 -81 -139 -203 -261
l-90 -91 -95 -13 c-52 -6 -115 -14 -140 -15 -65 -5 -331 -6 -355 -1 -11 2 -53
7 -92 11 -40 4 -73 8 -73 10 0 1 136 140 303 307 311 314 380 396 461 549 51
95 121 297 132 378 l7 52 21 -23 c11 -12 37 -44 58 -72z m1198 -262 c0 -18
-150 -195 -255 -299 -110 -110 -281 -252 -292 -242 -2 3 4 42 14 88 13 63 18
128 18 260 l-1 176 27 -7 c42 -12 327 -3 399 13 78 17 90 19 90 11z"/>
</g>
</svg>
