<svg version="1.2" xmlns="http://www.w3.org/2000/svg" viewBox="0 0 1167 1167"><style></style><path fill-rule="evenodd" d="m1152 503.8c0 108-32 200.3-96 276.6-63.9 76.6-139.8 114.8-227.7 114.8-59.7 0-104.9-22.9-135.6-69.1-40.7 48-89.7 72.2-147.1 72.2-64.1 0-118.9-27-164.6-81.3-45.7-54.1-68.4-125.6-68.4-213.9 0-90.4 25.5-164.4 77.1-221.8 51.2-57.3 113.1-86.2 185.2-86.2 45.5 0 87.4 15.7 125.6 46.9l9.6-34.9h149.9l-43.6 356.2c-2.6 24.4-4 45.5-4 63.5 0 22.3 10.3 33.3 30.9 33.3 38.2 0 75-23.9 110.4-72.2 35.3-48 53.1-108.4 53.1-180.8q0-158.8-115.9-263.5c-77.3-69.8-172.2-104.7-284.4-104.7-121.8 0-224.6 42.6-308 127.4-83.6 85.1-125.5 190.9-125.5 317.9 0 116.8 39.1 218.7 117.1 305.4 78.2 86.9 188.6 130.2 331 130.2 89.4 0 181.3-20.1 274.9-60.4 36.3-15.5 78 1.4 92.8 37.9 14.3 35.4-2.8 75.7-38 90.7-107.7 46.1-217.5 69.1-329.5 69.1-185.7 0-333.3-56.5-443.2-169.4-109.3-112.9-164.1-247.5-164.1-404.2 0-163.5 57.6-300.1 172.6-409.9 115-109.9 254.3-164.7 417.8-164.7 155.6 0 285.8 48.3 390.5 144.8 104.9 96.5 157.1 213.3 157.1 350.1zm-462.3 66.1c0-37-10.8-66.5-32.3-88.8-21.6-22.2-46.2-33.2-73.8-33.2-31.9 0-58.6 14.9-80.1 44.5q-32.3 44.2-32.3 116.6c0 39.1 7.7 71.7 23.1 97.9q22.9 39.4 60.5 39.4c36.8 0 68.4-18.1 94.8-53.7 26.5-35.8 39.9-76.6 40.1-122.7z"/></svg>
