
<svg version="1.2" xmlns="http://www.w3.org/2000/svg" viewBox="0 0 152 152">
	<path fill-rule="evenodd" d="m147.1 77.5c0 25.2-20.4 45.7-45.7 45.7-25.2 0-45.7-20.5-45.7-45.7 0-25.3 20.5-45.8 45.7-45.8 25.3 0 45.8 20.5 45.7 45.8zm-68.5 0c0 12.6 10.2 22.8 22.8 22.8 12.6 0 22.9-10.2 22.9-22.8 0-12.6-10.3-22.9-22.9-22.9-12.6 0-22.8 10.3-22.8 22.9z"/>
	<g>
		<path d="m30.8 62.9l-21.5 48.4 24.2 10.8 10.8-24.1c5.9-13.4-0.1-29.1-13.5-35.1z"/>
		<path d="m17.3 27.9c-5.9 13.4 0.1 29.1 13.5 35l10.8-24.2z"/>
	</g>
</svg>
